<?xml version="1.0" encoding="utf-8"?>
<!-- Generator: Adobe Illustrator 21.1.0, SVG Export Plug-In . SVG Version: 6.00 Build 0)  -->
<svg version="1.1" id="Layer_1" xmlns="http://www.w3.org/2000/svg" xmlns:xlink="http://www.w3.org/1999/xlink" x="0px" y="0px"
	 viewBox="0 0 108 20" style="enable-background:new 0 0 108 20;" xml:space="preserve">
<style type="text/css">
	.st0{fill:#5D6172;}
</style>
<g>
	<path class="st0" d="M11.7,10c0-2.9,1.3-5.6,3.6-7.4c-1.7-1.3-3.7-2-5.9-2C4.2,0.5,0,4.7,0,10c0,5.2,4.2,9.5,9.4,9.5
		c2.1,0,4.2-0.7,5.9-2C13,15.6,11.7,12.9,11.7,10"/>
	<path class="st0" d="M11.7,10c0,2.9,1.3,5.6,3.6,7.4c2.3-1.8,3.6-4.5,3.6-7.4c0-2.9-1.3-5.6-3.6-7.4C13,4.3,11.7,7.1,11.7,10
		 M46.2,7.4c-0.2-0.2-0.5-0.4-0.8-0.5c-0.3-0.1-0.7-0.2-1-0.2c-0.2,0-0.4,0-0.6,0.1c-0.2,0-0.4,0.1-0.6,0.2C43,7,42.8,7.1,42.6,7.3
		c-0.2,0.1-0.3,0.3-0.5,0.6C42,7.5,41.7,7.2,41.3,7c-0.4-0.2-0.8-0.3-1.2-0.3c-0.2,0-0.3,0-0.5,0c-0.2,0-0.3,0.1-0.5,0.1
		c-0.4,0.2-0.7,0.4-0.9,0.7V6.9h-1.3v6.3h1.3V9.7c0-0.3,0-0.5,0.1-0.7c0.1-0.2,0.2-0.4,0.3-0.5c0.1-0.1,0.3-0.2,0.5-0.3
		C39.4,8.1,39.6,8,39.8,8c0.4,0,0.8,0.1,1,0.4c0.2,0.3,0.4,0.7,0.4,1.2v3.5h1.3V9.7c0-0.3,0-0.5,0.1-0.7c0.1-0.2,0.2-0.4,0.3-0.5
		c0.1-0.1,0.3-0.2,0.5-0.3C43.7,8.1,43.9,8,44.1,8c0.4,0,0.8,0.1,1,0.4c0.2,0.3,0.4,0.7,0.4,1.2v3.5h1.3V9.2c0-0.4-0.1-0.7-0.2-1
		C46.6,7.9,46.4,7.6,46.2,7.4 M53.2,7.6c-0.2-0.3-0.5-0.5-0.8-0.7c-0.3-0.2-0.7-0.3-1.2-0.3c-0.8,0-1.6,0.3-2.2,0.9
		c-0.3,0.3-0.5,0.6-0.7,1c-0.2,0.4-0.2,0.9-0.2,1.3c0,0.5,0.1,0.9,0.2,1.3c0.2,0.4,0.4,0.8,0.7,1c0.6,0.6,1.4,0.9,2.2,0.9
		c0.4,0,0.8-0.1,1.2-0.3c0.3-0.2,0.6-0.4,0.8-0.7v0.8h1.4V6.9h-1.4V7.6z M53.1,10.8c-0.1,0.2-0.2,0.5-0.4,0.6
		c-0.2,0.2-0.4,0.3-0.6,0.4C51.9,12,51.6,12,51.4,12c-0.3,0-0.5,0-0.8-0.2c-0.2-0.1-0.4-0.2-0.6-0.4c-0.2-0.2-0.3-0.4-0.4-0.6
		c-0.1-0.3-0.1-0.5-0.1-0.8c0-0.3,0-0.5,0.1-0.8C49.7,9,49.8,8.8,50,8.6s0.4-0.3,0.6-0.4C50.8,8.1,51.1,8,51.4,8
		c0.3,0,0.5,0.1,0.8,0.2c0.2,0.1,0.4,0.2,0.6,0.4C52.9,8.8,53,9,53.1,9.2c0.1,0.2,0.1,0.5,0.1,0.8S53.2,10.6,53.1,10.8z M60.8,10
		c-0.4-0.3-0.9-0.5-1.6-0.6l-0.6-0.1c-0.1,0-0.3,0-0.4-0.1c-0.1,0-0.2-0.1-0.3-0.1c-0.1,0-0.2-0.1-0.2-0.2c-0.1-0.1-0.1-0.2-0.1-0.3
		c0-0.2,0.1-0.4,0.3-0.5C58,8,58.3,7.9,58.7,7.9c0.2,0,0.4,0,0.6,0.1c0.2,0,0.4,0.1,0.5,0.1c0.3,0.1,0.6,0.2,0.8,0.4l0.6-1.1
		c-0.4-0.2-0.7-0.4-1.1-0.5c-0.5-0.1-0.9-0.2-1.4-0.2c-0.4,0-0.8,0-1.1,0.1C57.3,7,57,7.1,56.8,7.3c-0.2,0.2-0.4,0.4-0.5,0.6
		c-0.1,0.2-0.2,0.5-0.2,0.8c0,0.5,0.2,0.9,0.5,1.2s0.9,0.5,1.6,0.6l0.7,0.1c0.4,0.1,0.7,0.1,0.8,0.3c0.2,0.1,0.3,0.3,0.3,0.4
		c0,0.2-0.1,0.4-0.4,0.6c-0.2,0.1-0.6,0.2-1.1,0.2c-0.3,0-0.5,0-0.7-0.1c-0.2,0-0.4-0.1-0.6-0.1c-0.2-0.1-0.3-0.1-0.5-0.2
		c-0.1-0.1-0.3-0.2-0.4-0.2l-0.6,1c0.2,0.2,0.5,0.3,0.7,0.4c0.4,0.2,0.9,0.3,1.4,0.4c0.2,0,0.4,0,0.6,0c0.5,0,0.9-0.1,1.2-0.1
		c0.4-0.1,0.7-0.2,0.9-0.4s0.4-0.4,0.6-0.6c0.1-0.3,0.2-0.5,0.2-0.8C61.4,10.7,61.2,10.3,60.8,10 M73.6,7.6C73.3,7.3,73,7.1,72.7,7
		c-0.4-0.2-0.8-0.2-1.2-0.2c-0.5,0-0.9,0.1-1.3,0.2c-0.4,0.2-0.7,0.4-1,0.7c-0.3,0.3-0.5,0.7-0.6,1c-0.2,0.4-0.2,0.9-0.2,1.3
		c0,0.5,0.1,0.9,0.2,1.4c0.2,0.4,0.4,0.8,0.7,1c0.3,0.3,0.6,0.5,1,0.7c0.4,0.2,0.9,0.2,1.3,0.2c0.5,0,0.9-0.1,1.4-0.2
		c0.4-0.1,0.8-0.4,1.2-0.7l-0.7-1c-0.3,0.2-0.6,0.4-0.9,0.5c-0.3,0.1-0.6,0.2-0.9,0.2c-0.2,0-0.4,0-0.6-0.1
		c-0.2-0.1-0.4-0.2-0.6-0.3c-0.2-0.1-0.3-0.3-0.4-0.5c-0.1-0.2-0.2-0.5-0.2-0.7h4.6c0-0.2,0-0.3,0-0.5c0-0.5-0.1-0.9-0.2-1.3
		C74.1,8.3,73.9,7.9,73.6,7.6z M69.8,9.5c0-0.2,0.1-0.4,0.2-0.6c0.1-0.2,0.2-0.4,0.3-0.5c0.1-0.1,0.3-0.2,0.5-0.3
		C71,8,71.2,7.9,71.4,7.9c0.4,0,0.8,0.1,1.1,0.4C72.8,8.6,73,9,73,9.5L69.8,9.5L69.8,9.5z M91.8,7.6c-0.2-0.3-0.5-0.5-0.8-0.7
		c-0.3-0.2-0.7-0.3-1.2-0.3c-0.8,0-1.6,0.3-2.2,0.9c-0.3,0.3-0.5,0.6-0.7,1c-0.2,0.4-0.2,0.9-0.2,1.3c0,0.5,0.1,0.9,0.2,1.3
		c0.5,1.2,1.6,2,2.9,2c0.4,0,0.8-0.1,1.2-0.2c0.3-0.2,0.6-0.4,0.8-0.7v0.8h1.4V6.9h-1.4L91.8,7.6L91.8,7.6z M91.7,10.8
		c-0.1,0.2-0.2,0.5-0.4,0.6c-0.2,0.2-0.4,0.3-0.6,0.4C90.5,12,90.2,12,90,12c-0.3,0-0.6-0.1-0.8-0.2c-0.2-0.1-0.4-0.2-0.6-0.4
		c-0.2-0.2-0.3-0.4-0.4-0.6c-0.1-0.3-0.1-0.5-0.1-0.8c0-0.3,0-0.5,0.1-0.8c0.1-0.2,0.2-0.5,0.4-0.6s0.4-0.3,0.6-0.4
		C89.4,8.1,89.7,8,90,8c0.5,0,1,0.2,1.4,0.6c0.2,0.2,0.3,0.4,0.4,0.6c0.1,0.2,0.1,0.5,0.1,0.8S91.8,10.6,91.7,10.8z M66.7,11.9
		C66.4,12,66.2,12,66,12c-0.1,0-0.3,0-0.4-0.1c-0.1,0-0.2-0.1-0.3-0.2c-0.1-0.1-0.2-0.2-0.2-0.4C65,11.2,65,11,65,10.9V8.1h2.2V6.9
		H65V5h-1.4v1.9h-1.2v1.2h1.3v2.8c0,0.8,0.2,1.4,0.6,1.8c0.4,0.4,0.9,0.6,1.7,0.6c0.4,0,0.8-0.1,1.1-0.2c0.2-0.1,0.4-0.2,0.6-0.3
		l-0.5-1.1C67,11.8,66.8,11.8,66.7,11.9 M79,6.7c-0.4,0-0.7,0.1-1,0.2c-0.3,0.1-0.6,0.5-0.8,0.8V6.9h-1.2v6.3h1.3V9.7
		c0-0.3,0-0.5,0.1-0.7c0.1-0.2,0.2-0.4,0.3-0.5c0.1-0.1,0.3-0.3,0.5-0.3C78.3,8.1,78.5,8,78.7,8c0.3,0,0.5,0,0.8,0.1l0.4-1.3
		c-0.1,0-0.2-0.1-0.3-0.1C79.4,6.7,79.2,6.7,79,6.7 M98,6.7c-0.4,0-0.7,0.1-1,0.2s-0.6,0.5-0.8,0.8V6.9h-1.2v6.3h1.3V9.7
		c0-0.3,0-0.5,0.1-0.7c0.1-0.2,0.2-0.4,0.3-0.5c0.1-0.1,0.3-0.3,0.5-0.3C97.3,8.1,97.5,8,97.7,8c0.3,0,0.5,0,0.8,0.1l0.4-1.3
		c-0.1,0-0.2-0.1-0.3-0.1C98.4,6.7,98.2,6.7,98,6.7 M104.4,4.3v3.3c-0.2-0.3-0.5-0.5-0.8-0.7c-0.3-0.2-0.7-0.3-1.2-0.3
		c-0.8,0-1.6,0.3-2.2,0.9c-0.3,0.3-0.5,0.6-0.7,1c-0.2,0.4-0.2,0.9-0.2,1.3c0,0.5,0.1,0.9,0.2,1.3c0.2,0.4,0.4,0.8,0.7,1
		c0.6,0.6,1.4,0.9,2.2,0.9c0.4,0,0.8-0.1,1.2-0.3c0.3-0.2,0.6-0.4,0.8-0.7v0.8h1.4V4.3H104.4z M104.3,10.8c-0.1,0.2-0.2,0.5-0.4,0.6
		c-0.2,0.2-0.4,0.3-0.6,0.4c-0.2,0.1-0.5,0.2-0.8,0.2c-0.3,0-0.5,0-0.8-0.2c-0.2-0.1-0.4-0.2-0.6-0.4c-0.2-0.2-0.3-0.4-0.4-0.6
		c-0.1-0.3-0.1-0.5-0.1-0.8c0-0.3,0-0.5,0.1-0.8c0.1-0.2,0.2-0.5,0.4-0.6c0.2-0.2,0.4-0.3,0.6-0.4c0.2-0.1,0.5-0.2,0.8-0.2
		c0.3,0,0.5,0.1,0.8,0.2c0.2,0.1,0.4,0.2,0.6,0.4c0.2,0.2,0.3,0.4,0.4,0.6c0.1,0.2,0.1,0.5,0.1,0.8S104.4,10.6,104.3,10.8z
		 M82.3,8.6c0.2-0.2,0.4-0.3,0.6-0.4C83.1,8.1,83.4,8,83.7,8c0.3,0,0.6,0.1,0.9,0.1c0.3,0.1,0.5,0.2,0.7,0.4l0.7-1.1
		C85.6,7.3,85.3,7.1,85,7c-0.4-0.2-0.9-0.3-1.3-0.3c-0.5,0-0.9,0.1-1.3,0.3c-0.4,0.2-0.8,0.4-1.1,0.7c-0.3,0.3-0.5,0.7-0.7,1
		c-0.2,0.4-0.3,0.8-0.3,1.3c0,0.5,0.1,0.9,0.3,1.3c0.2,0.4,0.4,0.7,0.7,1c0.3,0.3,0.7,0.5,1.1,0.7c0.4,0.2,0.9,0.3,1.3,0.3
		s0.9-0.1,1.3-0.3c0.3-0.1,0.6-0.3,0.8-0.5l-0.7-1.1c-0.2,0.2-0.4,0.3-0.7,0.4C84.3,12,84,12,83.7,12c-0.3,0-0.5,0-0.8-0.1
		c-0.2-0.1-0.4-0.2-0.6-0.4c-0.2-0.2-0.3-0.4-0.4-0.6c-0.1-0.2-0.2-0.5-0.2-0.8c0-0.3,0.1-0.6,0.2-0.8C82,9,82.1,8.7,82.3,8.6
		 M29.9,15.2v-0.3h-0.1v-0.1h0.4v0.1H30L29.9,15.2L29.9,15.2L29.9,15.2z M30.6,15.2v-0.3V15.2l-0.2,0l-0.1-0.3v0.3h-0.1v-0.4h0.1
		l0.1,0.3l0.1-0.3h0.1L30.6,15.2C30.7,15.2,30.6,15.2,30.6,15.2z M107.5,12.6c0.1,0,0.3,0,0.3,0.1c0,0,0.1,0.1,0.1,0.2
		c0.1,0.1,0.1,0.3,0,0.4c-0.1,0.3-0.4,0.4-0.6,0.3c0,0,0,0,0,0c-0.1,0-0.2-0.1-0.3-0.3c0-0.1,0-0.1,0-0.2c0-0.1,0.1-0.3,0.1-0.3
		C107.2,12.6,107.3,12.6,107.5,12.6z M107.5,13.4c0.1,0,0.2,0,0.2-0.1c0.1-0.1,0.1-0.2,0.1-0.2c0-0.1-0.1-0.3-0.2-0.3
		c0,0-0.1,0-0.1,0c-0.1,0-0.2,0-0.2,0.1c-0.1,0.1-0.1,0.4,0,0.5C107.3,13.3,107.4,13.4,107.5,13.4z M107.5,12.8c0.1,0,0.1,0,0.1,0
		c0,0,0,0.1,0,0.1c0,0,0,0.1,0,0.1c0,0-0.1,0-0.1,0l0.1,0.2h-0.1l-0.1-0.1h0v0.1h-0.1v-0.4H107.5z M107.4,12.9L107.4,12.9
		L107.4,12.9c0.1,0.1,0.1,0.1,0.1,0.1c0,0,0,0,0,0c0,0,0,0,0,0C107.5,12.9,107.5,12.9,107.4,12.9L107.4,12.9z"/>
	<path class="st0" d="M21.2,0.5c-2.1,0-4.2,0.7-5.9,2c2.3,1.8,3.6,4.5,3.6,7.4c0,2.9-1.3,5.6-3.6,7.4c1.7,1.3,3.7,2,5.9,2
		c5.2,0,9.5-4.2,9.5-9.5C30.6,4.7,26.4,0.5,21.2,0.5"/>
</g>
</svg>
