<svg xmlns="http://www.w3.org/2000/svg" width="83" height="20" viewBox="0 0 83 20">
    <g fill="none" fill-rule="nonzero">
        <path fill="#5D6172" d="M63.858 5.262H59.4c-.263 0-.525.246-.656.492l-1.836 10.83c0 .247.131.37.394.37h2.36c.262 0 .393-.123.393-.37l.525-3.076c0-.246.262-.493.655-.493h1.443c3.016 0 4.72-1.353 5.114-4.061.262-1.108 0-2.092-.525-2.708-.787-.615-1.967-.984-3.41-.984m.525 4.061C64.12 10.8 62.94 10.8 61.76 10.8h-.787l.525-2.83c0-.124.13-.247.393-.247h.262c.787 0 1.574 0 1.967.492.262.123.262.493.262 1.108"/>
        <g fill="#5D6172">
            <path d="M31.732 5.262h-4.458c-.262 0-.525.246-.656.492l-1.835 10.83c0 .247.13.37.393.37h2.098c.262 0 .524-.246.656-.492l.524-2.954c0-.246.262-.493.656-.493h1.442c3.016 0 4.72-1.353 5.114-4.061.262-1.108 0-2.092-.525-2.708-.786-.615-1.835-.984-3.409-.984m.525 4.061c-.263 1.477-1.443 1.477-2.623 1.477h-.655l.524-2.83c0-.124.131-.247.393-.247h.263c.786 0 1.573 0 1.967.492.13.123.262.493.13 1.108M45.238 9.2H43.14c-.131 0-.393.123-.393.246l-.131.616-.132-.247c-.524-.615-1.442-.861-2.49-.861-2.361 0-4.46 1.723-4.853 4.061a3.504 3.504 0 0 0 .787 3.077c.656.739 1.574.985 2.754.985 1.967 0 3.016-1.108 3.016-1.108l-.131.616c0 .246.13.369.393.369h1.967c.262 0 .524-.246.655-.492l1.18-6.893c-.13-.123-.393-.369-.524-.369m-3.016 3.938c-.262 1.108-1.18 1.97-2.491 1.97-.656 0-1.18-.246-1.443-.493-.262-.369-.393-.861-.393-1.477.131-1.107 1.18-1.969 2.36-1.969.656 0 1.05.246 1.443.493.393.369.524.984.524 1.476"/>
        </g>
        <path fill="#5D6172" d="M77.233 9.2h-2.098c-.132 0-.394.123-.394.246l-.13.616-.132-.247c-.525-.615-1.442-.861-2.491-.861-2.36 0-4.459 1.723-4.852 4.061a3.504 3.504 0 0 0 .787 3.077c.655.739 1.573.985 2.753.985 1.967 0 3.016-1.108 3.016-1.108l-.13.616c0 .246.13.369.392.369h1.967c.263 0 .525-.246.656-.492l1.18-6.893c-.131-.123-.262-.369-.524-.369m-3.016 3.938c-.263 1.108-1.18 1.97-2.492 1.97-.655 0-1.18-.246-1.442-.493-.262-.369-.393-.861-.393-1.477.13-1.107 1.18-1.969 2.36-1.969.655 0 1.049.246 1.442.493.525.369.656.984.525 1.476M56.646 9.2h-2.23c-.261 0-.393.123-.524.246l-2.884 4.185-1.312-3.939c-.13-.246-.262-.369-.655-.369h-2.098c-.263 0-.394.246-.394.492l2.36 6.523-2.229 2.954c-.13.246 0 .616.263.616h2.098c.262 0 .393-.123.524-.246l7.212-9.724c.393-.369.131-.738-.131-.738M79.724 5.63l-1.836 11.078c0 .246.131.369.394.369h1.835c.263 0 .525-.246.656-.492l1.836-10.831c0-.246-.131-.37-.394-.37h-2.098c-.13-.122-.262 0-.393.247M15.08 1.57C14.16.584 12.456.091 10.096.091H3.54c-.393 0-.786.37-.918.739L0 16.954c0 .37.262.615.524.615H4.59l1.05-6.03v.246c.13-.37.524-.739.917-.739h1.967c3.803 0 6.687-1.477 7.605-5.538v-.37c-.13 0-.13 0 0 0 .131-1.6-.13-2.584-1.049-3.569"/>
        <path fill="#5D6172" d="M15.997 5.138v.37c-.918 4.184-3.802 5.538-7.605 5.538H6.425c-.393 0-.787.37-.918.739l-1.311 7.507c0 .246.131.493.524.493h3.41c.393 0 .786-.247.786-.616v-.123l.656-3.815v-.246c0-.37.393-.616.787-.616h.524c3.278 0 5.901-1.23 6.557-4.923.262-1.477.13-2.83-.656-3.692-.131-.246-.393-.492-.787-.616"/>
        <path fill="#8D909C" d="M15.08 4.77c-.132 0-.263-.124-.394-.124s-.262 0-.393-.123c-.525-.123-1.05-.123-1.705-.123H7.474c-.131 0-.262 0-.393.123a.672.672 0 0 0-.394.615l-1.049 6.4v.247c.131-.37.525-.739.918-.739h1.967c3.803 0 6.687-1.477 7.605-5.538 0-.123 0-.246.131-.37-.262-.123-.393-.246-.655-.246-.394-.123-.394-.123-.525-.123"/>
    </g>
</svg>
