<?xml version="1.0" encoding="utf-8"?>
<!-- Generator: Adobe Illustrator 21.1.0, SVG Export Plug-In . SVG Version: 6.00 Build 0)  -->
<svg version="1.1" id="Layer_1" xmlns="http://www.w3.org/2000/svg" xmlns:xlink="http://www.w3.org/1999/xlink" x="0px" y="0px"
	 viewBox="0 0 45 20" style="enable-background:new 0 0 45 20;" xml:space="preserve">
<style type="text/css">
	.st0{fill:#5D6172;}
</style>
<path class="st0" d="M41.7,3.2h-2.8c-0.9,0-1.5,0.2-1.9,1.1l-5.4,12.2h3.8c0,0,0.6-1.6,0.8-2l4.6,0c0.1,0.5,0.4,2,0.4,2h3.4
	L41.7,3.2L41.7,3.2z M37.2,11.8c0.3-0.8,1.4-3.7,1.4-3.7c0,0,0.3-0.8,0.5-1.3L39.4,8l0.8,3.8H37.2z M31.9,12.2
	c0,2.8-2.5,4.6-6.3,4.6c-1.6,0-3.2-0.3-4-0.7l0.5-3l0.5,0.2c1.2,0.5,2,0.7,3.4,0.7c1,0,2.2-0.4,2.2-1.3c0-0.6-0.5-1-1.9-1.7
	C24.8,10.4,23,9.3,23,7.4C23,4.8,25.6,3,29.1,3c1.4,0,2.5,0.3,3.3,0.6l-0.5,2.9l-0.3-0.2c-0.9-0.4-1.8-0.5-2.7-0.5
	c-1.4,0-2.1,0.6-2.1,1.1c0,0.6,0.8,1,2,1.7C30.9,9.5,31.9,10.7,31.9,12.2z M0,3.4l0-0.3h5.6c0.8,0,1.4,0.3,1.6,1.1l1.2,5.9
	C7.3,7,4.4,4.4,0,3.4z M16.4,3.2l-5.7,13.3l-3.8,0L3.6,5.4c2.3,1.5,4.3,3.9,5,5.5L9,12.3l3.6-9.1L16.4,3.2z M17.9,3.2h3.6l-2.3,13.3
	h-3.6L17.9,3.2L17.9,3.2z"/>
</svg>
